<svg width="66" height="75" viewBox="0 0 66 75" fill="none" xmlns="http://www.w3.org/2000/svg">
<path d="M49.612 0.855199C48.4467 2.24219 49.2565 4.4812 50.9355 6.72021L46.6492 11.8125C43.3505 11.2973 39.8544 12.4465 37.5236 15.2007L12.2207 45.2787C10.522 47.2997 9.69241 49.8756 9.92944 52.5307C10.127 54.7697 11.0356 56.8105 12.517 58.4353L0.290262 72.9591C-0.144291 73.4743 -0.0850335 74.2471 0.428529 74.7028C0.665558 74.9009 0.942092 75 1.21863 75C1.57417 75 1.90996 74.8415 2.14699 74.5641L14.3737 60.0205C16.0132 61.0904 17.8897 61.6254 19.7661 61.6254C22.5907 61.6254 25.3758 60.4366 27.3313 58.0985L52.6342 28.0403C54.3329 26.0193 55.1625 23.4434 54.9255 20.7883C54.8662 19.9759 54.6884 19.2032 54.4316 18.4502L58.7179 13.358C59.1722 13.5957 59.6265 13.7939 60.0413 13.9722C61.0882 14.3883 61.9376 14.5468 62.6091 14.5468C63.6955 14.5468 64.3276 14.1307 64.7029 13.675C66.5399 11.4954 63.4585 7.17594 59.8043 4.08492C56.2094 0.993899 51.449 -1.32436 49.612 0.855199ZM58.2636 5.96727C61.7203 8.89977 62.9054 11.4162 62.8462 12.07C62.5104 12.1493 61.6413 11.9908 60.3771 11.4162L60.5154 11.2378C60.7327 10.9803 60.8314 10.6632 60.7919 10.3462C60.7722 10.0292 60.6141 9.71215 60.3574 9.51401L54.4119 4.4812C53.8983 4.04529 53.128 4.10473 52.6934 4.6199L52.5552 4.79823C51.7651 3.649 51.4688 2.81681 51.4885 2.47997C52.1404 2.30164 54.8069 3.03476 58.2636 5.96727ZM52.5157 20.9864C52.6737 22.9679 52.0614 24.9097 50.7774 26.4354L50.1454 27.1883L47.9726 25.3456C47.5775 25.0087 47.0047 25.0682 46.6689 25.4645C46.3331 25.8607 46.3924 26.4354 46.7874 26.7722L48.9602 28.6149L46.827 31.1511L42.916 27.8223C42.5209 27.4855 41.9481 27.5449 41.6123 27.9412C41.2765 28.3375 41.3358 28.9121 41.7308 29.249L45.6418 32.5778L43.2913 35.3716L41.1185 33.5288C40.7235 33.192 40.1506 33.2514 39.8149 33.6477C39.4791 34.044 39.5383 34.6186 39.9334 34.9555L42.1061 36.7982L41.0395 38.0663L39.9729 39.3344L36.0619 36.0056C35.6668 35.6688 35.094 35.7282 34.7582 36.1245C34.4224 36.5208 34.4817 37.0954 34.8767 37.4322L38.7877 40.761L36.9903 42.901L34.8175 41.0582C34.4224 40.7214 33.8496 40.7808 33.5138 41.1771C33.178 41.5734 33.2373 42.148 33.6323 42.4849L35.8051 44.3276L33.6718 46.8638L29.7609 43.535C29.3658 43.1982 28.793 43.2576 28.4572 43.6539C28.1214 44.0502 28.1807 44.6248 28.5757 44.9616L32.4867 48.2904L30.1362 51.0842L27.9634 49.2415C27.5684 48.9047 26.9955 48.9641 26.6597 49.3604C26.3239 49.7567 26.3832 50.3313 26.7783 50.6681L28.951 52.5109L26.8178 55.0471L22.9068 51.7183C22.5117 51.3815 21.9389 51.4409 21.6031 51.8372C21.2673 52.2335 21.3266 52.8081 21.7216 53.1449L25.6326 56.4737L25.5339 56.5926C22.887 59.7431 18.1662 60.1393 15.0453 57.4842C13.5244 56.1963 12.596 54.3932 12.4182 52.4118C12.2602 50.4304 12.8726 48.4886 14.1565 46.9629L29.7016 28.496L39.4593 16.9047C40.7432 15.379 42.5407 14.4478 44.5159 14.2694C44.7332 14.2496 44.9505 14.2496 45.148 14.2496C46.906 14.2496 48.5849 14.8639 49.9478 16.0131C51.4095 17.2019 52.3379 19.005 52.5157 20.9864ZM51.4688 14.0317C50.7577 13.4372 49.9873 12.9617 49.1972 12.5852L53.7798 7.13631L57.8686 10.584L53.286 16.0329C52.7724 15.2998 52.1799 14.6261 51.4688 14.0317Z" fill="#AB3ADB"/>
<path d="M25.6224 32.336C29.8297 35.8431 34.0369 39.37 38.2442 42.8771C39.0343 43.531 40.1799 42.4016 39.3898 41.7279C35.1826 38.2208 30.9753 34.6939 26.768 31.1867C25.9779 30.5329 24.8323 31.6623 25.6224 32.336Z" fill="#AB3ADB"/>
</svg>
