<svg width="172" height="21" viewBox="0 0 172 21" fill="none" xmlns="http://www.w3.org/2000/svg">
<path d="M17.304 3.152L11.328 20H6.192L0.216 3.152H4.584L8.76 15.872L12.96 3.152H17.304ZM19.4033 13.28C19.4033 11.904 19.6593 10.696 20.1713 9.656C20.6993 8.616 21.4113 7.816 22.3073 7.256C23.2033 6.696 24.2033 6.416 25.3073 6.416C26.2513 6.416 27.0753 6.608 27.7793 6.992C28.4993 7.376 29.0513 7.88 29.4353 8.504V6.608H33.5393V20H29.4353V18.104C29.0353 18.728 28.4753 19.232 27.7553 19.616C27.0513 20 26.2273 20.192 25.2833 20.192C24.1953 20.192 23.2033 19.912 22.3073 19.352C21.4113 18.776 20.6993 17.968 20.1713 16.928C19.6593 15.872 19.4033 14.656 19.4033 13.28ZM29.4353 13.304C29.4353 12.28 29.1473 11.472 28.5713 10.88C28.0113 10.288 27.3233 9.992 26.5073 9.992C25.6913 9.992 24.9953 10.288 24.4193 10.88C23.8593 11.456 23.5793 12.256 23.5793 13.28C23.5793 14.304 23.8593 15.12 24.4193 15.728C24.9953 16.32 25.6913 16.616 26.5073 16.616C27.3233 16.616 28.0113 16.32 28.5713 15.728C29.1473 15.136 29.4353 14.328 29.4353 13.304ZM45.8923 20L41.8123 14.384V20H37.7083V2.24H41.8123V12.056L45.8683 6.608H50.9323L45.3643 13.328L50.9803 20H45.8923ZM59.1922 20.192C58.0242 20.192 56.9842 19.992 56.0722 19.592C55.1602 19.192 54.4402 18.648 53.9122 17.96C53.3842 17.256 53.0882 16.472 53.0242 15.608H57.0802C57.1282 16.072 57.3442 16.448 57.7282 16.736C58.1122 17.024 58.5842 17.168 59.1442 17.168C59.6562 17.168 60.0482 17.072 60.3202 16.88C60.6082 16.672 60.7522 16.408 60.7522 16.088C60.7522 15.704 60.5522 15.424 60.1522 15.248C59.7522 15.056 59.1042 14.848 58.2082 14.624C57.2482 14.4 56.4482 14.168 55.8082 13.928C55.1682 13.672 54.6162 13.28 54.1522 12.752C53.6882 12.208 53.4562 11.48 53.4562 10.568C53.4562 9.8 53.6642 9.104 54.0802 8.48C54.5122 7.84 55.1362 7.336 55.9522 6.968C56.7842 6.6 57.7682 6.416 58.9042 6.416C60.5842 6.416 61.9042 6.832 62.8642 7.664C63.8402 8.496 64.4002 9.6 64.5442 10.976H60.7522C60.6882 10.512 60.4802 10.144 60.1282 9.872C59.7922 9.6 59.3442 9.464 58.7842 9.464C58.3042 9.464 57.9362 9.56 57.6802 9.752C57.4242 9.928 57.2962 10.176 57.2962 10.496C57.2962 10.88 57.4962 11.168 57.8962 11.36C58.3122 11.552 58.9522 11.744 59.8162 11.936C60.8082 12.192 61.6162 12.448 62.2402 12.704C62.8642 12.944 63.4082 13.344 63.8722 13.904C64.3522 14.448 64.6002 15.184 64.6162 16.112C64.6162 16.896 64.3922 17.6 63.9442 18.224C63.5122 18.832 62.8802 19.312 62.0482 19.664C61.2322 20.016 60.2802 20.192 59.1922 20.192ZM70.3911 5.216C69.6711 5.216 69.0791 5.008 68.6151 4.592C68.1671 4.16 67.9431 3.632 67.9431 3.008C67.9431 2.368 68.1671 1.84 68.6151 1.424C69.0791 0.991999 69.6711 0.775999 70.3911 0.775999C71.0951 0.775999 71.6711 0.991999 72.1191 1.424C72.5831 1.84 72.8151 2.368 72.8151 3.008C72.8151 3.632 72.5831 4.16 72.1191 4.592C71.6711 5.008 71.0951 5.216 70.3911 5.216ZM72.4311 6.608V20H68.3271V6.608H72.4311ZM84.7652 6.464C86.3332 6.464 87.5812 6.976 88.5092 8C89.4532 9.008 89.9252 10.4 89.9252 12.176V20H85.8452V12.728C85.8452 11.832 85.6132 11.136 85.1492 10.64C84.6852 10.144 84.0612 9.896 83.2772 9.896C82.4932 9.896 81.8692 10.144 81.4052 10.64C80.9412 11.136 80.7092 11.832 80.7092 12.728V20H76.6052V6.608H80.7092V8.384C81.1252 7.792 81.6852 7.328 82.3892 6.992C83.0932 6.64 83.8852 6.464 84.7652 6.464Z" fill="#001AFF"/>
<path d="M108.425 3.152L102.593 14.432V20H98.4891V14.432L92.6571 3.152H97.3131L100.577 10.208L103.817 3.152H108.425ZM124.503 6.608V20H120.399V18.176C119.983 18.768 119.415 19.248 118.695 19.616C117.991 19.968 117.207 20.144 116.343 20.144C115.319 20.144 114.415 19.92 113.631 19.472C112.847 19.008 112.239 18.344 111.807 17.48C111.375 16.616 111.159 15.6 111.159 14.432V6.608H115.239V13.88C115.239 14.776 115.471 15.472 115.935 15.968C116.399 16.464 117.023 16.712 117.807 16.712C118.607 16.712 119.239 16.464 119.703 15.968C120.167 15.472 120.399 14.776 120.399 13.88V6.608H124.503ZM136.834 20L132.754 14.384V20H128.65V2.24H132.754V12.056L136.81 6.608H141.874L136.306 13.328L141.922 20H136.834ZM152.87 20L148.79 14.384V20H144.686V2.24H148.79V12.056L152.846 6.608H157.91L152.342 13.328L157.958 20H152.87ZM166.17 20.192C165.002 20.192 163.962 19.992 163.05 19.592C162.138 19.192 161.418 18.648 160.89 17.96C160.362 17.256 160.066 16.472 160.002 15.608H164.058C164.106 16.072 164.322 16.448 164.706 16.736C165.09 17.024 165.562 17.168 166.122 17.168C166.634 17.168 167.026 17.072 167.298 16.88C167.586 16.672 167.73 16.408 167.73 16.088C167.73 15.704 167.53 15.424 167.13 15.248C166.73 15.056 166.082 14.848 165.186 14.624C164.226 14.4 163.426 14.168 162.786 13.928C162.146 13.672 161.594 13.28 161.13 12.752C160.666 12.208 160.434 11.48 160.434 10.568C160.434 9.8 160.642 9.104 161.058 8.48C161.49 7.84 162.114 7.336 162.93 6.968C163.762 6.6 164.746 6.416 165.882 6.416C167.562 6.416 168.882 6.832 169.842 7.664C170.818 8.496 171.378 9.6 171.522 10.976H167.73C167.666 10.512 167.458 10.144 167.106 9.872C166.77 9.6 166.322 9.464 165.762 9.464C165.282 9.464 164.914 9.56 164.658 9.752C164.402 9.928 164.274 10.176 164.274 10.496C164.274 10.88 164.474 11.168 164.874 11.36C165.29 11.552 165.93 11.744 166.794 11.936C167.786 12.192 168.594 12.448 169.218 12.704C169.842 12.944 170.386 13.344 170.85 13.904C171.33 14.448 171.578 15.184 171.594 16.112C171.594 16.896 171.37 17.6 170.922 18.224C170.49 18.832 169.858 19.312 169.026 19.664C168.21 20.016 167.258 20.192 166.17 20.192Z" fill="#0B1469"/>
</svg>
