<svg width="12" height="16" viewBox="0 0 12 16" fill="none" xmlns="http://www.w3.org/2000/svg">
<path fill-rule="evenodd" clip-rule="evenodd" d="M-6.10352e-05 2C-6.10352e-05 1.46957 0.210653 0.960859 0.585725 0.585786C0.960798 0.210714 1.46951 0 1.99994 0H6.58594C7.11633 0.000113275 7.62495 0.210901 7.99994 0.586L11.4139 4C11.789 4.37499 11.9998 4.88361 11.9999 5.414V14C11.9999 14.5304 11.7892 15.0391 11.4142 15.4142C11.0391 15.7893 10.5304 16 9.99994 16H1.99994C1.46951 16 0.960798 15.7893 0.585725 15.4142C0.210653 15.0391 -6.10352e-05 14.5304 -6.10352e-05 14V2ZM1.99994 8C1.99994 7.73478 2.1053 7.48043 2.29283 7.29289C2.48037 7.10536 2.73472 7 2.99994 7H8.99994C9.26516 7 9.51951 7.10536 9.70705 7.29289C9.89458 7.48043 9.99994 7.73478 9.99994 8C9.99994 8.26522 9.89458 8.51957 9.70705 8.70711C9.51951 8.89464 9.26516 9 8.99994 9H2.99994C2.73472 9 2.48037 8.89464 2.29283 8.70711C2.1053 8.51957 1.99994 8.26522 1.99994 8ZM2.99994 11C2.73472 11 2.48037 11.1054 2.29283 11.2929C2.1053 11.4804 1.99994 11.7348 1.99994 12C1.99994 12.2652 2.1053 12.5196 2.29283 12.7071C2.48037 12.8946 2.73472 13 2.99994 13H8.99994C9.26516 13 9.51951 12.8946 9.70705 12.7071C9.89458 12.5196 9.99994 12.2652 9.99994 12C9.99994 11.7348 9.89458 11.4804 9.70705 11.2929C9.51951 11.1054 9.26516 11 8.99994 11H2.99994Z" fill="#576EEE"/>
</svg>
