<svg width="75" height="75" viewBox="0 0 75 75" fill="none" xmlns="http://www.w3.org/2000/svg">
<path fill-rule="evenodd" clip-rule="evenodd" d="M18.75 11.25C16.7609 11.25 14.8532 12.0402 13.4467 13.4467C12.0402 14.8532 11.25 16.7609 11.25 18.75V56.25C11.25 58.2391 12.0402 60.1468 13.4467 61.5533C14.8532 62.9598 16.7609 63.75 18.75 63.75H56.25C58.2391 63.75 60.1468 62.9598 61.5533 61.5533C62.9598 60.1468 63.75 58.2391 63.75 56.25V18.75C63.75 16.7609 62.9598 14.8532 61.5533 13.4467C60.1468 12.0402 58.2391 11.25 56.25 11.25H18.75ZM52.5 26.25C52.5 25.2554 52.1049 24.3016 51.4016 23.5984C50.6984 22.8951 49.7446 22.5 48.75 22.5C47.7554 22.5 46.8016 22.8951 46.0984 23.5984C45.3951 24.3016 45 25.2554 45 26.25V48.75C45 49.7446 45.3951 50.6984 46.0984 51.4016C46.8016 52.1049 47.7554 52.5 48.75 52.5C49.7446 52.5 50.6984 52.1049 51.4016 51.4016C52.1049 50.6984 52.5 49.7446 52.5 48.75V26.25ZM41.25 33.75C41.25 32.7554 40.8549 31.8016 40.1516 31.0984C39.4484 30.3951 38.4946 30 37.5 30C36.5054 30 35.5516 30.3951 34.8484 31.0984C34.1451 31.8016 33.75 32.7554 33.75 33.75V48.75C33.75 49.7446 34.1451 50.6984 34.8484 51.4016C35.5516 52.1049 36.5054 52.5 37.5 52.5C38.4946 52.5 39.4484 52.1049 40.1516 51.4016C40.8549 50.6984 41.25 49.7446 41.25 48.75V33.75ZM30 45C30 44.0054 29.6049 43.0516 28.9016 42.3484C28.1984 41.6451 27.2446 41.25 26.25 41.25C25.2554 41.25 24.3016 41.6451 23.5984 42.3484C22.8951 43.0516 22.5 44.0054 22.5 45V48.75C22.5 49.7446 22.8951 50.6984 23.5984 51.4016C24.3016 52.1049 25.2554 52.5 26.25 52.5C27.2446 52.5 28.1984 52.1049 28.9016 51.4016C29.6049 50.6984 30 49.7446 30 48.75V45Z" fill="#F30032"/>
</svg>
