<svg width="14" height="15" viewBox="0 0 14 15" fill="none" xmlns="http://www.w3.org/2000/svg">
<path fill-rule="evenodd" clip-rule="evenodd" d="M7.00003 6C7.79568 6 8.55874 5.68393 9.12135 5.12132C9.68396 4.55871 10 3.79565 10 3C10 2.20435 9.68396 1.44129 9.12135 0.87868C8.55874 0.316071 7.79568 0 7.00003 0C6.20438 0 5.44132 0.316071 4.87871 0.87868C4.3161 1.44129 4.00003 2.20435 4.00003 3C4.00003 3.79565 4.3161 4.55871 4.87871 5.12132C5.44132 5.68393 6.20438 6 7.00003 6ZM3.05176e-05 15C3.05039e-05 14.0807 0.181091 13.1705 0.532874 12.3212C0.884657 11.4719 1.40027 10.7003 2.05028 10.0503C2.70029 9.40024 3.47197 8.88463 4.32125 8.53284C5.17053 8.18106 6.08078 8 7.00003 8C7.91928 8 8.82954 8.18106 9.67881 8.53284C10.5281 8.88463 11.2998 9.40024 11.9498 10.0503C12.5998 10.7003 13.1154 11.4719 13.4672 12.3212C13.819 13.1705 14 14.0807 14 15H3.05176e-05Z" fill="#576EEE"/>
</svg>
